<svg viewBox="0 0 296 332" xmlns="http://www.w3.org/2000/svg" xmlns:xlink="http://www.w3.org/1999/xlink" width="296.000000" height="332.000000" fill="none" customFrame="#000000">
	<rect id="фрейм 1" width="259.000000" height="285.000000" x="0.000000" y="0.000000" />
	<g id="Сочетание 2">
		<g id="Group">
			<path id="Vector" d="M229.104 107.67L296 146.377L296 100.587C296 91.1395 290.975 82.4164 282.804 77.686L236.73 51.0335C228.596 46.3287 218.483 46.3287 210.349 51.0335L172.879 72.7141C164.745 77.419 159.682 86.193 159.682 95.6027L159.682 141.291C159.682 150.701 164.732 159.475 172.879 164.192L235.588 200.471C240.321 203.205 243.239 208.265 243.239 213.746C243.239 219.227 240.321 224.287 235.588 227.021L172.879 263.3C164.72 268.017 159.682 276.753 159.682 286.201L159.682 331.991L282.804 260.757C290.937 256.052 296 247.278 296 237.855L296 189.637C296 180.227 290.95 171.453 282.804 166.735L218.001 129.236C214.562 127.253 212.456 123.578 212.456 119.61L212.456 117.283C212.456 113.303 214.575 109.641 218.001 107.645C221.44 105.661 225.665 105.661 229.104 107.645L229.104 107.67Z" fill="rgb(255,255,255)" fill-opacity="0.200000003" fill-rule="nonzero" />
			<path id="Vector" d="M161.189 3.52866C153.055 -1.17622 142.942 -1.17622 134.808 3.52866L13.1966 73.8857C5.03754 78.6033 0 87.3391 0 96.787L0 142.577L200.753 26.4045L161.189 3.52866Z" fill="rgb(255,255,255)" fill-opacity="0.200000003" fill-rule="nonzero" />
			<path id="Vector" d="M123.121 164.201C131.28 159.483 136.318 150.748 136.318 141.3L136.318 95.5098L13.1966 166.744C5.06291 171.449 0 180.223 0 189.645L0 237.864C0 247.274 5.05023 256.048 13.1966 260.765L136.318 332L136.318 286.21C136.318 276.8 131.268 268.026 123.121 263.309L60.4124 227.03C55.6794 224.296 52.7609 219.235 52.7609 213.755C52.7609 208.274 55.6794 203.213 60.4124 200.479L123.109 164.201L123.121 164.201Z" fill="rgb(255,255,255)" fill-opacity="0.200000003" fill-rule="nonzero" />
		</g>
	</g>
</svg>
