<svg viewBox="0 0 151.254 32" xmlns="http://www.w3.org/2000/svg" xmlns:xlink="http://www.w3.org/1999/xlink" width="151.253906" height="32.000000" fill="none" customFrame="#000000">
	<rect id="Frame 19" width="150.974365" height="32.000000" x="0.000000" y="0.000000" />
	<g id="Group">
		<path id="Vector" d="M48.4352 8.43051L48.4352 11.3916L45.0408 11.3916L45.0408 24.6735L41.1888 24.6735L41.1888 11.3916L38.7725 11.3916L38.7725 8.43051L41.1888 8.43051L41.1888 6.89727C41.1888 5.80403 41.4182 4.89463 41.8745 4.16907C42.3321 3.44352 42.9476 2.90057 43.721 2.54024C44.4944 2.18114 45.3528 2.00098 46.2964 2.00098C46.9637 2.00098 47.5545 2.05245 48.0688 2.15418C48.5832 2.2559 48.968 2.35273 49.2233 2.44465L48.4463 5.40571C48.2834 5.35669 48.0787 5.30521 47.8345 5.25251C47.5903 5.19981 47.3152 5.17285 47.0093 5.17285C46.2927 5.17285 45.7857 5.34443 45.4873 5.68515C45.1888 6.02709 45.0408 6.51489 45.0408 7.14975L45.0408 8.42928L48.4352 8.42928L48.4352 8.43051Z" fill="rgb(255,255,255)" fill-rule="nonzero" />
		<path id="Vector" d="M51.8961 6.12478C51.2794 6.12478 50.7515 5.92256 50.3161 5.51688C49.8807 5.11121 49.6611 4.62341 49.6611 4.05228C49.6611 3.48115 49.8795 2.98233 50.3161 2.57665C50.7527 2.17098 51.2794 1.96875 51.8961 1.96875C52.5128 1.96875 53.0296 2.17098 53.4663 2.57665C53.9029 2.98233 54.1212 3.47379 54.1212 4.05228C54.1212 4.63077 53.9029 5.11121 53.4663 5.51688C53.0296 5.92256 52.5067 6.12478 51.8961 6.12478ZM49.9584 24.6731L49.9584 8.43015L53.8104 8.43015L53.8104 24.6731L49.9584 24.6731Z" fill="rgb(255,255,255)" fill-rule="nonzero" />
		<path id="Vector" d="M60.124 15.1567L60.124 24.6735L56.272 24.6735L56.272 8.43053L59.9538 8.43053L59.9538 11.1906L60.1449 11.1906C60.5211 10.2738 61.1218 9.54951 61.9482 9.0176C62.7746 8.48568 63.7984 8.21973 65.0182 8.21973C66.7068 8.21973 68.0586 8.74796 69.0725 9.80566C70.0864 10.8634 70.6007 12.3721 70.6155 14.3318L70.6155 24.6735L66.7635 24.6735L66.7635 14.9238C66.7635 13.8379 66.4811 12.9886 65.9174 12.3758C65.3537 11.763 64.5742 11.4553 63.5813 11.4553C62.9078 11.4553 62.3096 11.5999 61.7879 11.8892C61.2661 12.1784 60.8579 12.6 60.5643 13.1528C60.2695 13.7068 60.1227 14.3747 60.1227 15.1567L60.124 15.1567Z" fill="rgb(255,255,255)" fill-rule="nonzero" />
		<path id="Vector" d="M85.9657 12.7234L82.4541 13.1045C82.3542 12.7454 82.1816 12.412 81.9324 12.1056C81.6833 11.7992 81.3564 11.5504 80.9481 11.3605C80.5399 11.1705 80.0379 11.0749 79.4421 11.0749C78.6404 11.0749 77.9731 11.2465 77.4415 11.5872C76.9099 11.9292 76.6361 12.379 76.6225 12.9354C76.6077 13.4011 76.7841 13.7847 77.1492 14.0875C77.5143 14.3902 78.1088 14.6341 78.9315 14.8167L81.7203 15.4087C84.7915 16.0509 86.3247 17.5167 86.3173 19.8074C86.2741 21.3725 85.6117 22.6275 84.3277 23.5724C83.0437 24.5174 81.3798 24.9892 79.336 24.9892C77.2922 24.9892 75.7196 24.5737 74.5096 23.7416C73.2996 22.9094 72.5707 21.7426 72.3228 20.2412L76.0798 19.8821C76.25 20.615 76.6139 21.169 77.1701 21.5428C77.7264 21.9166 78.4455 22.1029 79.3249 22.1029C80.2044 22.1029 80.9765 21.9179 81.5328 21.5477C82.0891 21.1776 82.3678 20.7143 82.3678 20.1567C82.3678 19.2325 81.6339 18.6161 80.1649 18.306L77.3761 17.7238C74.2679 17.0608 72.7359 15.5349 72.7791 13.145C72.8001 11.6228 73.4156 10.4204 74.6256 9.53923C75.8356 8.65801 77.423 8.2168 79.3878 8.2168C80.6644 8.2168 81.761 8.40186 82.6762 8.772C83.5914 9.14213 84.324 9.66179 84.8741 10.3322C85.4242 11.0026 85.7869 11.798 85.9645 12.7221L85.9657 12.7234Z" fill="rgb(255,255,255)" fill-rule="nonzero" />
		<path id="Vector" d="M87.9995 30.7648L87.9995 8.43053L91.7886 8.43053L91.7886 11.1171L92.0119 11.1171C92.1537 10.8205 92.3437 10.5055 92.5817 10.1709C92.8198 9.8363 93.1207 9.52255 93.4858 9.22963C93.8509 8.93671 94.2949 8.69526 94.8167 8.50529C95.3384 8.31532 95.9613 8.21973 96.6841 8.21973C97.9471 8.21973 99.0868 8.54084 100.106 9.18183C101.123 9.82282 101.932 10.7641 102.532 12.0056C103.131 13.2459 103.431 14.7694 103.431 16.5735C103.431 18.3776 103.136 19.8728 102.548 21.1205C101.958 22.3681 101.157 23.3204 100.143 23.9761C99.1275 24.6318 97.9792 24.9591 96.694 24.9591C95.9909 24.9591 95.3791 24.8671 94.8586 24.6845C94.3369 24.5007 93.8916 24.2666 93.5228 23.981C93.154 23.6955 92.8469 23.3891 92.6027 23.0606C92.3585 22.7321 92.1611 22.4172 92.0119 22.1144L91.8527 22.1144L91.8527 30.7648L88.0007 30.7648L87.9995 30.7648ZM91.7775 16.5526C91.7775 17.603 91.9268 18.5234 92.224 19.3127C92.5225 20.102 92.9579 20.7172 93.5327 21.1585C94.1075 21.5997 94.8019 21.8191 95.6184 21.8191C96.4349 21.8191 97.1824 21.5911 97.7572 21.1364C98.332 20.6817 98.7661 20.0579 99.0609 19.2649C99.3557 18.4719 99.5025 17.5674 99.5025 16.5526C99.5025 15.5378 99.3569 14.6493 99.0658 13.8661C98.7748 13.0829 98.3418 12.4701 97.7671 12.0265C97.1923 11.5828 96.4756 11.3597 95.6172 11.3597C94.7587 11.3597 94.0951 11.573 93.5203 11.9995C92.9456 12.426 92.5114 13.029 92.2166 13.8073C91.9218 14.5868 91.775 15.5011 91.775 16.5514L91.7775 16.5526Z" fill="rgb(255,255,255)" fill-rule="nonzero" />
		<path id="Vector" d="M109.925 25.0002C108.889 25.0002 107.958 24.8152 107.132 24.445C106.305 24.0749 105.653 23.5271 105.173 22.8003C104.694 22.0747 104.455 21.1788 104.455 20.1138C104.455 19.197 104.627 18.4396 104.972 17.8403C105.316 17.2409 105.781 16.7605 106.366 16.3965C106.952 16.0337 107.613 15.758 108.35 15.5717C109.088 15.3854 109.858 15.253 110.659 15.1746C110.829 15.1537 110.992 15.1353 111.149 15.1219C111.986 15.0446 112.667 14.9613 113.193 14.8731C113.718 14.7848 114.101 14.6561 114.342 14.487C114.584 14.3179 114.704 14.0605 114.704 13.7149L114.704 13.6511C114.704 12.8545 114.466 12.238 113.991 11.8005C113.516 11.3629 112.831 11.1448 111.937 11.1448C111.313 11.1448 110.774 11.2404 110.319 11.4303C109.865 11.6203 109.494 11.8716 109.206 12.1816C108.919 12.4917 108.712 12.8337 108.583 13.2075L104.987 12.7001C105.433 11.2195 106.271 10.1018 107.498 9.34803C108.725 8.59428 110.197 8.2168 111.915 8.2168C112.696 8.2168 113.478 8.30627 114.262 8.48643C115.047 8.66659 115.761 8.96932 116.406 9.39583C117.051 9.82234 117.571 10.3947 117.965 11.1141C118.358 11.8336 118.556 12.7283 118.556 13.8007L118.556 24.6718L114.852 24.6718L114.852 22.44L114.723 22.44C114.489 22.8983 114.16 23.3212 113.734 23.7085C113.309 24.0958 112.782 24.4083 112.154 24.6448C111.526 24.8814 110.783 24.999 109.924 24.999L109.925 25.0002ZM110.926 22.1875C111.699 22.1875 112.37 22.0343 112.937 21.7279C113.505 21.4215 113.943 21.0146 114.252 20.506C114.561 19.9986 114.715 19.4446 114.715 18.8453L114.715 16.9309C114.431 17.1208 113.943 17.2802 113.252 17.4064C112.561 17.5326 111.927 17.6319 111.352 17.703C111.296 17.7103 111.239 17.7177 111.182 17.7238C110.6 17.801 110.084 17.9297 109.634 18.1099C109.184 18.2901 108.828 18.5352 108.565 18.8453C108.302 19.1553 108.171 19.5573 108.171 20.0513C108.171 20.756 108.43 21.2879 108.948 21.6482C109.467 22.0073 110.126 22.1875 110.928 22.1875L110.926 22.1875Z" fill="rgb(255,255,255)" fill-rule="nonzero" />
		<path id="Vector" d="M128.073 24.9909C126.448 24.9909 125.051 24.6355 123.88 23.9234C122.71 23.2113 121.81 22.2247 121.183 20.9624C120.555 19.7 120.24 18.2513 120.24 16.6164C120.24 14.9814 120.56 13.5021 121.199 12.2434C121.838 10.9847 122.74 9.99931 123.907 9.28723C125.074 8.57515 126.455 8.21973 128.053 8.21973C130.046 8.21973 131.677 8.74674 132.943 9.80076C134.21 10.8548 134.921 12.274 135.077 14.0573L131.395 14.0573C131.295 13.5291 131.104 13.0584 130.821 12.6454C130.537 12.2324 130.168 11.9076 129.714 11.6674C129.26 11.4271 128.725 11.3083 128.107 11.3083C126.922 11.3083 125.966 11.7715 125.239 12.6993C124.512 13.6259 124.149 14.9115 124.149 16.5539C124.149 18.1962 124.509 19.5112 125.229 20.4562C125.95 21.4011 126.909 21.873 128.108 21.873C128.952 21.873 129.667 21.6352 130.252 21.1597C130.837 20.6841 131.219 20.0052 131.397 19.1239L135.078 19.1239C134.979 20.2797 134.637 21.2969 134.051 22.1745C133.465 23.052 132.666 23.7408 131.651 24.2421C130.636 24.7421 129.444 24.9934 128.075 24.9934L128.073 24.9909Z" fill="rgb(255,255,255)" fill-rule="nonzero" />
		<path id="Vector" d="M143.985 24.9912C142.346 24.9912 140.932 24.6492 139.744 23.9653C138.557 23.2815 137.643 22.3157 137.004 21.068C136.365 19.8203 136.045 18.3472 136.045 16.6472C136.045 14.9473 136.365 13.5085 137.004 12.2424C137.643 10.9776 138.542 9.98975 139.701 9.28135C140.862 8.57295 142.222 8.21875 143.783 8.21875C144.79 8.21875 145.744 8.3793 146.646 8.70041C147.546 9.02152 148.341 9.51667 149.03 10.1858C149.718 10.8563 150.261 11.7068 150.658 12.74C151.055 13.7732 151.254 15.0013 151.254 16.4254L151.254 17.5995L139.867 17.5995C139.902 19.0029 140.296 20.0887 141.048 20.8572C141.801 21.6257 142.797 22.0093 144.038 22.0093C144.868 22.0093 145.585 21.8328 146.188 21.481C146.791 21.1281 147.228 20.6072 147.497 19.9159L151.093 20.3179C150.859 21.2629 150.426 22.084 149.794 22.7814C149.163 23.4788 148.354 24.0217 147.368 24.4102C146.382 24.7975 145.254 24.9924 143.984 24.9924L143.985 24.9912ZM139.876 15.0184L147.561 15.0184C147.532 13.8909 147.181 12.9717 146.507 12.2633C145.834 11.5549 144.943 11.2007 143.836 11.2007C143.07 11.2007 142.398 11.3747 141.819 11.724C141.241 12.0733 140.783 12.5353 140.446 13.1089C140.11 13.6837 139.92 14.3198 139.876 15.0172L139.876 15.0184Z" fill="rgb(255,255,255)" fill-rule="nonzero" />
	</g>
	<g id="Group">
		<path id="Vector" d="M22.2696 10.3781L28.7722 14.1088L28.7722 9.6954C28.7722 8.78477 28.2838 7.944 27.4895 7.48808L23.0109 4.91921C22.2202 4.46573 21.2372 4.46573 20.4466 4.91921L16.8043 7.00887C16.0136 7.46234 15.5215 8.30801 15.5215 9.21496L15.5215 13.6186C15.5215 14.5255 16.0124 15.3712 16.8043 15.8259L22.8999 19.3225C23.3599 19.586 23.6436 20.0738 23.6436 20.6021C23.6436 21.1303 23.3599 21.6181 22.8999 21.8816L16.8043 25.3783C16.0112 25.833 15.5215 26.6749 15.5215 27.5856L15.5215 31.999L27.4895 25.1331C28.2801 24.6797 28.7722 23.834 28.7722 22.9258L28.7722 18.2783C28.7722 17.3714 28.2813 16.5257 27.4895 16.071L21.1903 12.4567C20.8561 12.2655 20.6513 11.9113 20.6513 11.5289L20.6513 11.3046C20.6513 10.921 20.8573 10.568 21.1903 10.3756C21.5246 10.1844 21.9353 10.1844 22.2696 10.3756L22.2696 10.3781Z" fill="rgb(192,152,242)" fill-rule="nonzero" />
		<path id="Vector" d="M15.6683 0.340106C14.8776 -0.113369 13.8946 -0.113369 13.104 0.340106L1.28277 7.12139C0.489672 7.57609 0 8.41808 0 9.3287L0 13.7421L19.5141 2.54497L15.6683 0.340106Z" fill="rgb(29,30,27)" fill-rule="nonzero" />
		<path id="Vector" d="M11.968 15.8268C12.7611 15.3721 13.2507 14.5301 13.2507 13.6195L13.2507 9.20605L1.28277 16.0719C0.492139 16.5254 0 17.371 0 18.2792L0 22.9267C0 23.8337 0.490905 24.6793 1.28277 25.134L13.2507 31.9999L13.2507 27.5865C13.2507 26.6795 12.7598 25.8339 11.968 25.3792L5.87236 21.8825C5.41229 21.619 5.12861 21.1312 5.12861 20.603C5.12861 20.0747 5.41229 19.5869 5.87236 19.3234L11.9667 15.8268L11.968 15.8268Z" fill="rgb(29,30,27)" fill-rule="nonzero" />
	</g>
</svg>
