<svg width="152" height="32" viewBox="0 0 152 32" fill="none" xmlns="http://www.w3.org/2000/svg">
<path d="M48.4352 8.43039V11.3915H45.0408V24.6733H41.1888V11.3915H38.7725V8.43039H41.1888V6.89715C41.1888 5.80391 41.4182 4.89451 41.8745 4.16895C42.3321 3.44339 42.9476 2.90045 43.721 2.54012C44.4943 2.18102 45.3528 2.00085 46.2964 2.00085C46.9637 2.00085 47.5545 2.05233 48.0688 2.15406C48.5832 2.25578 48.968 2.3526 49.2233 2.44452L48.4463 5.40559C48.2834 5.35657 48.0787 5.30509 47.8345 5.25239C47.5903 5.19969 47.3152 5.17272 47.0093 5.17272C46.2927 5.17272 45.7857 5.34431 45.4873 5.68503C45.1888 6.02697 45.0408 6.51476 45.0408 7.14963V8.42916H48.4352V8.43039Z" fill="#1D1E1B"/>
<path d="M51.8961 6.12503C51.2794 6.12503 50.7515 5.9228 50.3161 5.51712C49.8807 5.11145 49.6611 4.62366 49.6611 4.05253C49.6611 3.48139 49.8795 2.98257 50.3161 2.5769C50.7527 2.17122 51.2794 1.96899 51.8961 1.96899C52.5128 1.96899 53.0296 2.17122 53.4663 2.5769C53.9029 2.98257 54.1212 3.47404 54.1212 4.05253C54.1212 4.63101 53.9029 5.11145 53.4663 5.51712C53.0296 5.9228 52.5067 6.12503 51.8961 6.12503ZM49.9584 24.6734V8.43039H53.8104V24.6734H49.9584Z" fill="#1D1E1B"/>
<path d="M60.1245 15.1565V24.6734H56.2725V8.43041H59.9543V11.1905H60.1454C60.5216 10.2737 61.1223 9.54939 61.9487 9.01747C62.7751 8.48556 63.7989 8.2196 65.0187 8.2196C66.7073 8.2196 68.0591 8.74784 69.073 9.80554C70.0869 10.8632 70.6012 12.372 70.616 14.3317V24.6734H66.764V14.9237C66.764 13.8378 66.4816 12.9884 65.9179 12.3756C65.3542 11.7628 64.5747 11.4552 63.5818 11.4552C62.9083 11.4552 62.3101 11.5998 61.7884 11.8891C61.2666 12.1783 60.8584 12.5999 60.5648 13.1527C60.27 13.7066 60.1232 14.3746 60.1232 15.1565H60.1245Z" fill="#1D1E1B"/>
<path d="M85.9662 12.7236L82.4546 13.1048C82.3547 12.7457 82.182 12.4123 81.9329 12.1059C81.6837 11.7995 81.3569 11.5507 80.9486 11.3607C80.5404 11.1708 80.0383 11.0752 79.4426 11.0752C78.6409 11.0752 77.9736 11.2467 77.442 11.5875C76.9104 11.9294 76.6365 12.3792 76.623 12.9356C76.6082 13.4014 76.7846 13.785 77.1496 14.0877C77.5147 14.3904 78.1093 14.6343 78.932 14.8169L81.7208 15.4089C84.792 16.0511 86.3251 17.5169 86.3177 19.8076C86.2746 21.3727 85.6122 22.6277 84.3282 23.5727C83.0442 24.5176 81.3803 24.9895 79.3365 24.9895C77.2927 24.9895 75.7201 24.574 74.5101 23.7418C73.3001 22.9096 72.5712 21.7428 72.3232 20.2415L76.0803 19.8824C76.2505 20.6153 76.6143 21.1692 77.1706 21.5431C77.7269 21.9169 78.446 22.1032 79.3254 22.1032C80.2049 22.1032 80.977 21.9181 81.5333 21.548C82.0895 21.1778 82.3683 20.7145 82.3683 20.1569C82.3683 19.2328 81.6344 18.6163 80.1654 18.3062L77.3766 17.7241C74.2684 17.061 72.7364 15.5351 72.7796 13.1452C72.8006 11.623 73.4161 10.4207 74.6261 9.53947C75.8361 8.65826 77.4235 8.21704 79.3883 8.21704C80.6649 8.21704 81.7615 8.40211 82.6767 8.77224C83.5919 9.14237 84.3245 9.66203 84.8746 10.3324C85.4247 11.0028 85.7874 11.7983 85.965 12.7224L85.9662 12.7236Z" fill="#1D1E1B"/>
<path d="M88 30.7646V8.43041H91.7891V11.1169H92.0123C92.1542 10.8203 92.3441 10.5054 92.5822 10.1708C92.8203 9.83618 93.1212 9.52242 93.4863 9.2295C93.8514 8.93658 94.2954 8.69514 94.8172 8.50517C95.3389 8.3152 95.9618 8.2196 96.6846 8.2196C97.9476 8.2196 99.0873 8.54071 100.106 9.18171C101.124 9.8227 101.933 10.764 102.532 12.0055C103.132 13.2458 103.431 14.7692 103.431 16.5733C103.431 18.3774 103.137 19.8727 102.548 21.1203C101.959 22.368 101.157 23.3203 100.143 23.976C99.128 24.6317 97.9797 24.9589 96.6945 24.9589C95.9914 24.9589 95.3796 24.867 94.8591 24.6844C94.3374 24.5006 93.8921 24.2665 93.5233 23.9809C93.1545 23.6953 92.8474 23.3889 92.6032 23.0605C92.3589 22.732 92.1616 22.417 92.0123 22.1143H91.8532V30.7646H88.0012H88ZM91.778 16.5525C91.778 17.6028 91.9272 18.5233 92.2245 19.3126C92.523 20.1019 92.9584 20.7171 93.5332 21.1583C94.1079 21.5995 94.8024 21.8189 95.6189 21.8189C96.4354 21.8189 97.1829 21.591 97.7577 21.1363C98.3324 20.6816 98.7666 20.0577 99.0614 19.2648C99.3562 18.4718 99.503 17.5673 99.503 16.5525C99.503 15.5377 99.3574 14.6491 99.0663 13.866C98.7752 13.0828 98.3423 12.47 97.7675 12.0263C97.1928 11.5827 96.4761 11.3596 95.6177 11.3596C94.7592 11.3596 94.0956 11.5729 93.5208 11.9994C92.9461 12.4259 92.5119 13.0289 92.2171 13.8071C91.9223 14.5866 91.7755 15.5009 91.7755 16.5513L91.778 16.5525Z" fill="#1D1E1B"/>
<path d="M109.925 25.0005C108.889 25.0005 107.958 24.8154 107.132 24.4453C106.305 24.0752 105.653 23.5273 105.173 22.8005C104.694 22.075 104.455 21.1791 104.455 20.114C104.455 19.1972 104.627 18.4398 104.972 17.8405C105.316 17.2412 105.781 16.7607 106.366 16.3967C106.952 16.034 107.613 15.7582 108.35 15.5719C109.088 15.3856 109.858 15.2532 110.659 15.1748C110.829 15.154 110.992 15.1356 111.149 15.1221C111.986 15.0449 112.667 14.9616 113.193 14.8733C113.718 14.7851 114.101 14.6564 114.342 14.4872C114.584 14.3181 114.704 14.0607 114.704 13.7151V13.6514C114.704 12.8547 114.466 12.2383 113.991 11.8007C113.516 11.3632 112.831 11.145 111.937 11.145C111.313 11.145 110.774 11.2406 110.319 11.4306C109.865 11.6205 109.494 11.8718 109.206 12.1819C108.919 12.492 108.712 12.8339 108.583 13.2077L104.987 12.7003C105.433 11.2198 106.271 10.102 107.498 9.34828C108.725 8.59453 110.197 8.21704 111.915 8.21704C112.696 8.21704 113.478 8.30651 114.262 8.48667C115.047 8.66684 115.761 8.96956 116.406 9.39607C117.051 9.82258 117.571 10.3949 117.965 11.1144C118.358 11.8338 118.556 12.7285 118.556 13.8009V24.672H114.852V22.4402H114.723C114.489 22.8986 114.16 23.3214 113.734 23.7087C113.309 24.096 112.782 24.4085 112.154 24.6451C111.526 24.8816 110.783 24.9993 109.924 24.9993L109.925 25.0005ZM110.926 22.1877C111.699 22.1877 112.37 22.0345 112.937 21.7281C113.505 21.4217 113.943 21.0148 114.252 20.5062C114.561 19.9988 114.715 19.4448 114.715 18.8455V16.9311C114.431 17.1211 113.943 17.2804 113.252 17.4066C112.561 17.5329 111.927 17.6321 111.352 17.7032C111.296 17.7106 111.239 17.7179 111.182 17.7241C110.6 17.8013 110.084 17.93 109.634 18.1101C109.184 18.2903 108.828 18.5354 108.565 18.8455C108.302 19.1556 108.171 19.5576 108.171 20.0515C108.171 20.7562 108.43 21.2881 108.948 21.6485C109.467 22.0076 110.126 22.1877 110.928 22.1877H110.926Z" fill="#1D1E1B"/>
<path d="M128.073 24.9908C126.449 24.9908 125.051 24.6354 123.881 23.9233C122.71 23.2112 121.811 22.2246 121.183 20.9622C120.555 19.6999 120.241 18.2512 120.241 16.6162C120.241 14.9813 120.56 13.502 121.199 12.2433C121.838 10.9846 122.741 9.99918 123.908 9.28711C125.075 8.57503 126.456 8.2196 128.053 8.2196C130.047 8.2196 131.677 8.74662 132.944 9.80064C134.211 10.8547 134.921 12.2739 135.078 14.0572H131.396C131.296 13.5289 131.105 13.0583 130.821 12.6453C130.537 12.2322 130.169 11.9075 129.715 11.6672C129.261 11.427 128.725 11.3081 128.108 11.3081C126.922 11.3081 125.966 11.7714 125.24 12.6992C124.512 13.6258 124.149 14.9114 124.149 16.5537C124.149 18.196 124.51 19.5111 125.23 20.4561C125.95 21.401 126.91 21.8729 128.109 21.8729C128.952 21.8729 129.668 21.6351 130.252 21.1596C130.837 20.684 131.219 20.005 131.397 19.1238H135.079C134.979 20.2796 134.637 21.2968 134.051 22.1744C133.466 23.0519 132.666 23.7407 131.651 24.242C130.636 24.742 129.445 24.9933 128.075 24.9933L128.073 24.9908Z" fill="#1D1E1B"/>
<path d="M143.985 24.9908C142.346 24.9908 140.933 24.6489 139.745 23.965C138.557 23.2811 137.643 22.3153 137.004 21.0676C136.365 19.82 136.046 18.3468 136.046 16.6469C136.046 14.947 136.365 13.5081 137.004 12.242C137.643 10.9772 138.542 9.98939 139.702 9.28099C140.862 8.57258 142.223 8.21838 143.783 8.21838C144.791 8.21838 145.744 8.37894 146.646 8.70005C147.546 9.02116 148.342 9.5163 149.03 10.1855C149.718 10.8559 150.261 11.7065 150.658 12.7396C151.056 13.7728 151.254 15.0009 151.254 16.425V17.5992H139.867C139.903 19.0025 140.296 20.0884 141.049 20.8568C141.801 21.6253 142.798 22.0089 144.039 22.0089C144.869 22.0089 145.585 21.8324 146.188 21.4807C146.792 21.1277 147.228 20.6068 147.497 19.9156L151.094 20.3176C150.859 21.2625 150.426 22.0837 149.795 22.781C149.163 23.4784 148.354 24.0214 147.369 24.4099C146.382 24.7972 145.255 24.992 143.984 24.992L143.985 24.9908ZM139.877 15.018H147.561C147.533 13.8905 147.181 12.9713 146.508 12.2629C145.834 11.5545 144.944 11.2003 143.836 11.2003C143.07 11.2003 142.398 11.3743 141.82 11.7236C141.241 12.0729 140.784 12.535 140.447 13.1086C140.11 13.6834 139.92 14.3195 139.877 15.0168V15.018Z" fill="#1D1E1B"/>
<path d="M22.2696 10.3778L28.7722 14.1086V9.69515C28.7722 8.78453 28.2838 7.94376 27.4895 7.48783L23.0109 4.91896C22.2202 4.46549 21.2372 4.46549 20.4466 4.91896L16.8043 7.00862C16.0136 7.4621 15.5215 8.30777 15.5215 9.21472V13.6183C15.5215 14.5253 16.0124 15.3709 16.8043 15.8256L22.8999 19.3223C23.3599 19.5858 23.6436 20.0736 23.6436 20.6018C23.6436 21.1301 23.3599 21.6179 22.8999 21.8814L16.8043 25.378C16.0112 25.8327 15.5215 26.6747 15.5215 27.5853V31.9987L27.4895 25.1329C28.2801 24.6794 28.7722 23.8337 28.7722 22.9256V18.2781C28.7722 17.3711 28.2813 16.5255 27.4895 16.0708L21.1903 12.4564C20.8561 12.2652 20.6513 11.911 20.6513 11.5287V11.3044C20.6513 10.9208 20.8573 10.5678 21.1903 10.3754C21.5246 10.1842 21.9353 10.1842 22.2696 10.3754V10.3778Z" fill="#9B66EA"/>
<path d="M15.6683 0.340106C14.8776 -0.113369 13.8946 -0.113369 13.104 0.340106L1.28277 7.12139C0.489672 7.57609 0 8.41808 0 9.3287V13.7421L19.5141 2.54497L15.6683 0.340106Z" fill="#1D1E1B"/>
<path d="M11.968 15.8269C12.7611 15.3722 13.2507 14.5302 13.2507 13.6196V9.20618L1.28277 16.072C0.492139 16.5255 0 17.3712 0 18.2793V22.9268C0 23.8338 0.490905 24.6795 1.28277 25.1342L13.2507 32V27.5866C13.2507 26.6796 12.7598 25.834 11.968 25.3793L5.87236 21.8826C5.41229 21.6191 5.12861 21.1313 5.12861 20.6031C5.12861 20.0749 5.41229 19.5871 5.87236 19.3236L11.9667 15.8269H11.968Z" fill="#1D1E1B"/>
</svg>
