<svg viewBox="0 0 305 360" xmlns="http://www.w3.org/2000/svg" xmlns:xlink="http://www.w3.org/1999/xlink" width="305.000000" height="360.000000" fill="none" customFrame="#000000">
	<path id="Слияние" d="M205 30L205 70C205 86.5685 218.431 100 235 100L275 100C291.569 100 305 113.431 305 130L305 330C305 346.569 291.569 360 275 360L30 360C13.4315 360 0 346.569 0 330L0 30C0 13.4315 13.4315 0 30 0L175 0C191.569 0 205 13.4315 205 30ZM305 30C305 13.4315 291.569 0 275 0L245 0C228.431 0 215 13.4315 215 30L215 60C215 76.5685 228.431 90 245 90L275 90C291.569 90 305 76.5685 305 60L305 30Z" fill="rgb(209,178,246)" fill-rule="evenodd" />
</svg>
