<svg viewBox="0 0 42 42" xmlns="http://www.w3.org/2000/svg" xmlns:xlink="http://www.w3.org/1999/xlink" width="42.000000" height="42.000000" fill="none">
	<rect id="file-search 1" width="42.000000" height="42.000000" x="0.000000" y="0.000000" fill="rgb(255,255,255)" fill-opacity="0" />
	<path id="Vector" d="M24.5 3.5L24.5 10.5C24.5 11.4283 24.8687 12.3185 25.5251 12.9749C26.1815 13.6313 27.0717 14 28 14L35 14" fill-rule="nonzero" stroke="rgb(0,0,0)" stroke-linecap="round" stroke-linejoin="round" stroke-width="2" />
	<path id="Vector" d="M7.469 36.75C7.77544 37.2808 8.21588 37.7218 8.74626 38.0289C9.27664 38.336 9.87837 38.4985 10.4913 38.5L31.5 38.5C32.4283 38.5 33.3185 38.1312 33.9749 37.4749C34.6312 36.8185 35 35.9283 35 35L35 12.25L26.25 3.5L10.5 3.5C9.57174 3.5 8.6815 3.86875 8.02513 4.52513C7.36875 5.1815 7 6.07174 7 7L7 12.25" fill-rule="nonzero" stroke="rgb(0,0,0)" stroke-linecap="round" stroke-linejoin="round" stroke-width="2" />
	<path id="Vector" d="M15.75 31.5L13.125 28.875" fill-rule="nonzero" stroke="rgb(155,102,234)" stroke-linecap="round" stroke-linejoin="round" stroke-width="2" />
	<path id="Vector" d="M8.75 29.75C5.8505 29.75 3.5 27.3995 3.5 24.5C3.5 21.6005 5.8505 19.25 8.75 19.25C11.6495 19.25 14 21.6005 14 24.5C14 27.3995 11.6495 29.75 8.75 29.75Z" stroke="rgb(155,102,234)" stroke-linecap="round" stroke-linejoin="round" stroke-width="2" />
</svg>
