<svg viewBox="0 0 32 32" xmlns="http://www.w3.org/2000/svg" xmlns:xlink="http://www.w3.org/1999/xlink" width="32.000000" height="32.000000" fill="none">
	<rect id="fullscreen 1" width="32.000000" height="32.000000" x="0.000000" y="0.000000" fill="rgb(255,255,255)" fill-opacity="0" />
	<path id="Vector" d="M4 9.33333L4 6.66667C4 5.95942 4.28095 5.28115 4.78105 4.78105C5.28115 4.28095 5.95942 4 6.66667 4L9.33333 4" fill-rule="nonzero" stroke="rgb(133.63,133.63,133.63)" stroke-linecap="round" stroke-linejoin="round" stroke-width="2" />
	<path id="Vector" d="M22.666 4L25.3327 4C26.0399 4 26.7182 4.28095 27.2183 4.78105C27.7184 5.28115 27.9993 5.95942 27.9993 6.66667L27.9993 9.33333" fill-rule="nonzero" stroke="rgb(133.63,133.63,133.63)" stroke-linecap="round" stroke-linejoin="round" stroke-width="2" />
	<path id="Vector" d="M27.9993 22.6667L27.9993 25.3333C27.9993 26.0406 27.7184 26.7188 27.2183 27.2189C26.7182 27.719 26.0399 28 25.3327 28L22.666 28" fill-rule="nonzero" stroke="rgb(133.63,133.63,133.63)" stroke-linecap="round" stroke-linejoin="round" stroke-width="2" />
	<path id="Vector" d="M9.33333 28L6.66667 28C5.95942 28 5.28115 27.719 4.78105 27.2189C4.28095 26.7188 4 26.0406 4 25.3333L4 22.6667" fill-rule="nonzero" stroke="rgb(133.63,133.63,133.63)" stroke-linecap="round" stroke-linejoin="round" stroke-width="2" />
	<path id="Vector" d="M21.334 10.6667C22.0704 10.6667 22.6673 11.2636 22.6673 12L22.6673 20C22.6673 20.7364 22.0704 21.3333 21.334 21.3333L10.6673 21.3333C9.93094 21.3333 9.33398 20.7364 9.33398 20L9.33398 12C9.33398 11.2636 9.93094 10.6667 10.6673 10.6667L21.334 10.6667Z" stroke="rgb(133.63,133.63,133.63)" stroke-linecap="round" stroke-linejoin="round" stroke-width="2" />
</svg>
